#!OML:ASF H:\MichaelJackson\Top Level 1\Subject 1\Session 1\male.ASF
:FULLY-SPECIFIED
:DEGREES
741
root -0.5633 10.7405 23.4529 30.6845 72.6936 7.29847
lowerback 32.892 -4.13198 -0.62543
upperback 10.8922 -5.13476 -11.6371
thorax -6.17269 -1.75806 -10.3308
lowerneck -8.9793 -4.394 -2.87829
upperneck -7.23995 -5.47862 -0.947835
head -0.715127 -2.57916 0.0662951
rclavicle 0 1.27222e-014
rhumerus -27.9991 50.0616 -27.6676
rradius 110.185
rwrist -32.7676
rhand -25.7465 -36.5544
rfingers 7.12502
rthumb 0.790598 293.467
lclavicle 0 1.27222e-014
lhumerus -39.8724 25.556 45.2688
lradius 48.4003
lwrist 28.3492
lhand -33.9821 7.29936
lfingers 7.12502
lthumb -7.16233 37.1582
rfemur -113.36 -40.2819 33.8782
rtibia 105.991
rfoot -28.4115 28.3801
rtoes -24.085
lfemur -15.7951 -7.90638 35.3
ltibia 16.7743
lfoot -0.770981 32.5176
ltoes 24.2692
742
root -0.559147 10.7278 23.5148 30.8348 72.2147 7.4652
lowerback 32.8296 -4.12345 -0.49032
upperback 10.8649 -5.09072 -11.5019
thorax -6.16523 -1.74648 -10.2727
lowerneck -9.08162 -4.20065 -2.71213
upperneck -7.1953 -5.24051 -1.36538
head -0.702895 -2.46302 -0.0835037
rclavicle 2.38542e-014 -5.08889e-014
rhumerus -26.5765 49.8369 -25.7714
rradius 110.314
rwrist -32.7113
rhand -25.4758 -36.3074
rfingers 7.12502
rthumb 1.05207 293.715
lclavicle 2.38542e-014 -5.08889e-014
lhumerus -40.2334 25.5572 45.5016
lradius 48.3055
lwrist 28.4972
lhand -34.0033 7.54421
lfingers 7.12502
lthumb -7.18278 37.4023
rfemur -113.807 -40.0505 34.331
rtibia 106.354
rfoot -28.1146 29.0597
rtoes -22.2701
lfemur -15.4417 -8.36907 34.8637
ltibia 16.9083
lfoot -1.76708 32.992
ltoes 31.6195
743
root -0.554066 10.716 23.5766 30.9318 71.7608 7.59522
lowerback 32.7756 -4.11971 -0.347403
upperback 10.8423 -5.04812 -11.3474
thorax -6.15385 -1.73539 -10.1968
lowerneck -9.15125 -4.00157 -2.56915
upperneck -7.17185 -4.99444 -1.78023
head -0.700157 -2.34199 -0.227781
rclavicle 1.27222e-014 5.48646e-014
rhumerus -25.1479 49.5456 -23.9004
rradius 110.398
rwrist -32.7024
rhand -25.1761 -36.07
rfingers 7.12502
rthumb 1.3415 293.955
lclavicle 1.27222e-014 5.48646e-014
lhumerus -40.5842 25.5532 45.7749
lradius 48.2239
lwrist 28.6781
lhand -34.0405 7.69856
lfingers 7.12502
lthumb -7.21862 37.5554
rfemur -114.201 -39.8442 34.7698
rtibia 106.713
rfoot -27.8168 29.7415
rtoes -20.3985
lfemur -15.0489 -8.97495 34.4594
ltibia 16.9779
lfoot -2.53373 33.4321
ltoes 37.6327
744
root -0.547825 10.7042 23.6379 30.9866 71.3299 7.70483
lowerback 32.7333 -4.11752 -0.205141
upperback 10.8235 -5.00554 -11.1737
thorax -6.14015 -1.72405 -10.0992
lowerneck -9.1917 -3.80068 -2.44777
upperneck -7.15668 -4.74542 -2.18474
head -0.702298 -2.2189 -0.365388
rclavicle 2.06736e-014 -3.18055e-014
rhumerus -23.7505 49.1988 -22.0798
rradius 110.465
rwrist -32.7754
rhand -24.8908 -35.8958
rfingers 7.12502
rthumb 1.617 294.131
lclavicle 2.06736e-014 -3.18055e-014
lhumerus -40.922 25.5399 46.0917
lradius 48.149
lwrist 28.8284
lhand -34.0927 7.77736
lfingers 7.12502
lthumb -7.26903 37.6325
rfemur -114.546 -39.6715 35.1902
rtibia 107.073
rfoot -27.5188 30.4344
rtoes -18.4701
lfemur -14.597 -9.73795 34.0924
ltibia 16.9615
lfoot -3.13194 33.9072
ltoes 42.2339
745
root -0.540305 10.6917 23.6986 31.0371 70.9123 7.83679
lowerback 32.7045 -4.12192 -0.0527154
upperback 10.8104 -4.96743 -11.0094
thorax -6.12848 -1.71377 -10.0158
lowerneck -9.21017 -3.6033 -2.3244
upperneck -7.13784 -4.50189 -2.56092
head -0.704756 -2.09906 -0.495244
rclavicle 3.97569e-014 2.38542e-014
rhumerus -22.4456 48.8062 -20.3916
rradius 110.526
rwrist -32.9202
rhand -24.6653 -35.8395
rfingers 7.12502
rthumb 1.83482 294.189
lclavicle 3.97569e-014 2.38542e-014
lhumerus -41.225 25.4915 46.4301
lradius 48.075
lwrist 28.9023
lhand -34.1701 7.78717
lfingers 7.12502
lthumb -7.34378 37.6397
rfemur -114.853 -39.5372 35.5761
rtibia 107.441
rfoot -27.2411 31.1244
rtoes -16.5607
lfemur -14.0703 -10.6385 33.7475
ltibia 16.8446
lfoot -3.59431 34.4351
ltoes 45.5964
746
root -0.531487 10.6775 23.7584 31.1131 70.5004 8.01806
lowerback 32.6846 -4.13064 0.109776
upperback 10.8011 -4.93183 -10.8632
thorax -6.1201 -1.7036 -9.95704
lowerneck -9.20923 -3.41372 -2.19763
upperneck -7.11097 -4.26939 -2.9088
head -0.706023 -1.98532 -0.617755
rclavicle -5.725e-014 -8.98507e-014
rhumerus -21.2428 48.386 -18.8325
rradius 110.596
rwrist -33.1341
rhand -24.5199 -35.9095
rfingers 7.12502
rthumb 1.97528 294.12
lclavicle -5.725e-014 -8.98507e-014
lhumerus -41.4897 25.3974 46.7871
lradius 48.0079
lwrist 28.8807
lhand -34.2938 7.73596
lfingers 7.12502
lthumb -7.46314 37.5843
rfemur -115.136 -39.4395 35.9193
rtibia 107.825
rfoot -26.9843 31.806
rtoes -14.684
lfemur -13.4651 -11.6171 33.4088
ltibia 16.62
lfoot -3.96921 35.0111
ltoes 47.9454
747
root -0.521391 10.6612 23.8171 31.2373 70.0873 8.26467
lowerback 32.6665 -4.14312 0.270278
upperback 10.7917 -4.90212 -10.7329
thorax -6.11553 -1.69566 -9.91274
lowerneck -9.20759 -3.22979 -2.06317
upperneck -7.05867 -4.04449 -3.24605
head -0.698369 -1.87652 -0.739365
rclavicle -7.63333e-014 -9.54166e-014
rhumerus -20.114 47.9584 -17.3708
rradius 110.675
rwrist -33.3809
rhand -24.4449 -36.0611
rfingers 7.12502
rthumb 2.04767 293.969
lclavicle -7.63333e-014 -9.54166e-014
lhumerus -41.7354 25.2686 47.1602
lradius 47.9549
lwrist 28.7688
lhand -34.4444 7.64277
lfingers 7.12502
lthumb -7.60852 37.4859
rfemur -115.41 -39.3714 36.2152
rtibia 108.227
rfoot -26.7405 32.4797
rtoes -12.8174
lfemur -12.788 -12.6021 33.0591
ltibia 16.2926
lfoot -4.29583 35.6203
ltoes 49.5152
748
root -0.510066 10.6424 23.8739 31.4172 69.6757 8.57297
lowerback 32.6396 -4.16361 0.442329
upperback 10.7785 -4.88037 -10.6165
thorax -6.11598 -1.69152 -9.88753
lowerneck -9.20893 -3.05589 -1.94236
upperneck -6.97621 -3.83041 -3.57095
head -0.679388 -1.77386 -0.856111
rclavicle 2.22639e-014 7.95139e-016
rhumerus -19.0434 47.5337 -15.9809
rradius 110.752
rwrist -33.6192
rhand -24.4138 -36.2395
rfingers 7.12502
rthumb 2.07776 293.791
lclavicle 2.22639e-014 7.95139e-016
lhumerus -41.9738 25.1076 47.5498
lradius 47.9274
lwrist 28.6047
lhand -34.6176 7.53535
lfingers 7.12502
lthumb -7.77565 37.3724
rfemur -115.69 -39.3281 36.4723
rtibia 108.647
rfoot -26.5226 33.1269
rtoes -10.9924
lfemur -12.0607 -13.5209 32.6952
ltibia 15.8814
lfoot -4.6529 36.231
ltoes 50.4758
749
root -0.497736 10.6216 23.9288 31.6771 69.2633 8.95913
lowerback 32.5982 -4.19621 0.617633
upperback 10.7582 -4.87486 -10.5134
thorax -6.12358 -1.69555 -9.8731
lowerneck -9.22245 -2.88731 -1.81875
upperneck -6.86063 -3.62223 -3.90897
head -0.647491 -1.67534 -0.978577
rclavicle -2.06736e-014 6.44062e-014
rhumerus -18.0017 47.1127 -14.6419
rradius 110.818
rwrist -33.8171
rhand -24.3748 -36.3675
rfingers 7.12502
rthumb 2.11542 293.663
lclavicle -2.06736e-014 6.44062e-014
lhumerus -42.2256 24.9417 47.9398
lradius 47.9352
lwrist 28.4402
lhand -34.7733 7.41254
lfingers 7.12502
lthumb -7.92597 37.2439
rfemur -115.984 -39.3036 36.687
rtibia 109.078
rfoot -26.3227 33.7512
rtoes -9.17252
lfemur -11.3126 -14.3204 32.3017
ltibia 15.415
lfoot -5.01678 36.8163
ltoes 51.0563
750
root -0.484575 10.5997 23.9819 32.005 68.8545 9.40735
lowerback 32.5421 -4.24303 0.800839
upperback 10.7292 -4.88669 -10.4147
thorax -6.13922 -1.70867 -9.86174
lowerneck -9.24488 -2.72007 -1.70852
upperneck -6.72213 -3.41312 -4.2581
head -0.605887 -1.57687 -1.10319
rclavicle 3.02153e-014 4.13472e-014
rhumerus -16.9555 46.6866 -13.304
rradius 110.872
rwrist -33.9721
rhand -24.2892 -36.4096
rfingers 7.12502
rthumb 2.19803 293.622
lclavicle 3.02153e-014 4.13472e-014
lhumerus -42.4982 24.7989 48.3302
lradius 47.9737
lwrist 28.3059
lhand -34.8874 7.26243
lfingers 7.12502
lthumb -8.03609 37.0896
rfemur -116.284 -39.2911 36.8615
rtibia 109.514
rfoot -26.1408 34.344
rtoes -7.36103
lfemur -10.5749 -14.9511 31.8764
ltibia 14.9271
lfoot -5.37604 37.3415
ltoes 51.3653
751
root -0.470797 10.5775 24.0332 32.3792 68.4514 9.89365
lowerback 32.4731 -4.30053 0.996001
upperback 10.6945 -4.90941 -10.3152
thorax -6.15877 -1.7276 -9.8525
lowerneck -9.27862 -2.55766 -1.61322
upperneck -6.57017 -3.20737 -4.61254
head -0.557029 -1.48038 -1.22791
rclavicle -3.18055e-015 -1.27222e-014
rhumerus -15.9303 46.2334 -11.9829
rradius 110.916
rwrist -34.0926
rhand -24.1252 -36.3335
rfingers 7.12502
rthumb 2.35642 293.7
lclavicle -3.18055e-015 -1.27222e-014
lhumerus -42.7786 24.6966 48.7203
lradius 48.0387
lwrist 28.2386
lhand -34.919 7.08685
lfingers 7.12502
lthumb -8.06664 36.9129
rfemur -116.58 -39.2808 36.9955
rtibia 109.948
rfoot -25.9682 34.9022
rtoes -5.54451
lfemur -9.87142 -15.4131 31.4274
ltibia 14.4559
lfoot -5.6973 37.771
ltoes 51.5252
752
root -0.456653 10.5559 24.0829 32.7793 68.0524 10.4
lowerback 32.3932 -4.36599 1.2065
upperback 10.6594 -4.93775 -10.2152
thorax -6.17684 -1.74936 -9.84944
lowerneck -9.32758 -2.40198 -1.52033
upperneck -6.40612 -3.0084 -4.97086
head -0.50092 -1.388 -1.35448
rclavicle -7.15625e-014 4.37326e-014
rhumerus -14.9449 45.7375 -10.6947
rradius 110.956
rwrist -34.2093
rhand -23.8927 -36.1635
rfingers 7.12502
rthumb 2.58097 293.872
lclavicle -7.15625e-014 4.37326e-014
lhumerus -43.0491 24.6323 49.1191
lradius 48.1195
lwrist 28.2186
lhand -34.9044 6.90438
lfingers 7.12502
lthumb -8.05246 36.731
rfemur -116.856 -39.2635 37.0834
rtibia 110.373
rfoot -25.8181 35.4045
rtoes -3.79288
lfemur -9.21745 -15.734 30.96
ltibia 14.0352
lfoot -5.97906 38.0976
ltoes 51.5942
753
root -0.442346 10.5356 24.131 33.186 67.6591 10.9196
lowerback 32.3226 -4.43811 1.4339
upperback 10.6271 -4.9689 -10.1143
thorax -6.19717 -1.77202 -9.85361
lowerneck -9.36612 -2.25021 -1.43768
upperneck -6.26722 -2.81373 -5.31475
head -0.452957 -1.2969 -1.4751
rclavicle -3.18055e-015 1.43125e-014
rhumerus -14.0293 45.1965 -9.47167
rradius 110.999
rwrist -34.3324
rhand -23.6331 -35.9633
rfingers 7.12502
rthumb 2.83172 294.076
lclavicle -3.18055e-015 1.43125e-014
lhumerus -43.2965 24.6032 49.5306
lradius 48.2053
lwrist 28.2368
lhand -34.8144 6.73387
lfingers 7.12502
lthumb -7.9656 36.5638
rfemur -117.085 -39.2394 37.112
rtibia 110.781
rfoot -25.7155 35.8275
rtoes -2.22143
lfemur -8.62102 -15.9394 30.4751
ltibia 13.6898
lfoot -6.20859 38.326
ltoes 51.6444
754
root -0.428154 10.5171 24.1776 33.5522 67.2704 11.4075
lowerback 32.2668 -4.51109 1.6845
upperback 10.6006 -4.99304 -10.0098
thorax -6.21712 -1.79063 -9.86883
lowerneck -9.39341 -2.10388 -1.36164
upperneck -6.15267 -2.62596 -5.64021
head -0.413254 -1.20842 -1.58908
rclavicle 1.59028e-015 8.18993e-014
rhumerus -13.1967 44.6122 -8.32413
rradius 111.054
rwrist -34.4819
rhand -23.3889 -35.7782
rfingers 7.12502
rthumb 3.06755 294.264
lclavicle 1.59028e-015 8.18993e-014
lhumerus -43.5107 24.5962 49.9602
lradius 48.2916
lwrist 28.2724
lhand -34.6782 6.60123
lfingers 7.12502
lthumb -7.83419 36.4361
rfemur -117.25 -39.1919 37.0805
rtibia 111.169
rfoot -25.657 36.1623
rtoes -0.85251
lfemur -8.07958 -16.0368 29.9863
ltibia 13.437
lfoot -6.40607 38.4738
ltoes 51.6236
755
root -0.414136 10.5006 24.2226 33.8485 66.8832 11.8341
lowerback 32.2247 -4.58131 1.96323
upperback 10.583 -5.00368 -9.90218
thorax -6.23206 -1.80182 -9.90113
lowerneck -9.40835 -1.96199 -1.2692
upperneck -6.06057 -2.4465 -5.9611
head -0.381996 -1.12375 -1.70486
rclavicle -5.56597e-014 7.95139e-015
rhumerus -12.446 43.9947 -7.26405
rradius 111.111
rwrist -34.6457
rhand -23.2029 -35.6591
rfingers 7.12502
rthumb 3.24711 294.386
lclavicle -5.56597e-014 7.95139e-015
lhumerus -43.6797 24.5903 50.4153
lradius 48.3669
lwrist 28.316
lhand -34.5218 6.52844
lfingers 7.12502
lthumb -7.68322 36.3689
rfemur -117.337 -39.1071 36.9889
rtibia 111.532
rfoot -25.6507 36.3976
rtoes 0.280634
lfemur -7.58815 -16.0289 29.5017
ltibia 13.2853
lfoot -6.64544 38.5482
ltoes 51.4353
